<svg width="350" height="306" viewBox="0 0 350 306" fill="none" xmlns="http://www.w3.org/2000/svg">
<g opacity="0.3">
<g opacity="0.6">
<path d="M101.54 254.981C85.2227 243.743 71.6572 228.671 62.312 211.392C57.5514 202.59 53.8807 193.231 51.4024 183.579C48.8507 173.638 47.5572 163.349 47.5572 152.998C47.5572 142.648 48.9762 131.39 51.7744 121.006C54.4899 110.931 58.5035 101.206 63.7035 92.1029C73.9426 74.1775 88.6868 58.8821 106.341 47.8691L109.096 52.1577C92.16 62.7224 78.0144 77.3966 68.1916 94.5923C58.0627 112.326 52.7081 132.522 52.7081 152.998C52.7081 162.928 53.9496 172.798 56.3957 182.333C58.7714 191.59 62.2921 200.563 66.8568 209.004C75.8209 225.579 88.8352 240.039 104.49 250.819L101.539 254.979L101.54 254.981Z" fill="#A4A4A4"/>
<path d="M173.75 277.337C156.182 277.337 139.178 273.847 123.213 266.965L125.278 262.315C140.588 268.916 156.897 272.262 173.75 272.262C204.079 272.262 233.092 261.159 255.447 240.999C277.662 220.967 291.443 193.735 294.253 164.32L299.381 164.796C296.451 195.467 282.084 223.859 258.925 244.745C235.618 265.764 205.369 277.339 173.75 277.339V277.337Z" fill="#A4A4A4"/>
<path d="M293.995 139.236C290.629 110.367 276.628 83.7247 254.572 64.2187C232.347 44.5628 203.644 33.738 173.75 33.738C157.408 33.738 141.557 36.8914 126.635 43.1093L124.629 38.4351C140.187 31.951 156.715 28.663 173.749 28.663C204.915 28.663 234.839 39.9483 258.012 60.4411C281.005 80.7748 295.6 108.552 299.11 138.656L293.993 139.236H293.995Z" fill="#A4A4A4"/>
<path d="M107.853 55.5971C110.982 55.5971 113.518 53.0976 113.518 50.0142C113.518 46.9308 110.982 44.4312 107.853 44.4312C104.724 44.4312 102.188 46.9308 102.188 50.0142C102.188 53.0976 104.724 55.5971 107.853 55.5971Z" fill="#A4A4A4"/>
<path d="M124.246 270.473C127.375 270.473 129.911 267.974 129.911 264.89C129.911 261.807 127.375 259.307 124.246 259.307C121.117 259.307 118.581 261.807 118.581 264.89C118.581 267.974 121.117 270.473 124.246 270.473Z" fill="#A4A4A4"/>
<path d="M296.553 143.584C299.681 143.584 302.218 141.085 302.218 138.001C302.218 134.918 299.681 132.418 296.553 132.418C293.424 132.418 290.887 134.918 290.887 138.001C290.887 141.085 293.424 143.584 296.553 143.584Z" fill="#A4A4A4"/>
</g>
<g opacity="0.35">
<path d="M174.939 256.021C157.152 256.021 139.605 251.504 124.197 242.959C109.26 234.676 96.5149 222.75 87.3381 208.469L91.69 205.754C100.412 219.329 112.525 230.664 126.723 238.538C141.363 246.656 158.035 250.946 174.939 250.946C191.843 250.946 207.047 247.025 221.176 239.606C234.859 232.421 246.796 221.991 255.697 209.445L259.919 212.352C250.555 225.553 237.995 236.524 223.599 244.084C208.728 251.893 191.902 256.019 174.941 256.019L174.939 256.021Z" fill="#A4A4A4"/>
<path d="M269.904 194.821L265.184 192.786C270.634 180.516 273.395 167.445 273.395 153.938C273.395 129.631 264.229 106.378 247.587 88.4615C231.049 70.6585 208.568 59.6134 184.285 57.3612L184.767 52.3092C210.324 54.6792 233.983 66.3026 251.386 85.0359C268.901 103.89 278.546 128.361 278.546 153.938C278.546 168.15 275.638 181.905 269.904 194.819V194.821Z" fill="#A4A4A4"/>
<path d="M79.4761 193.675C74.0726 181.088 71.3326 167.719 71.3326 153.939C71.3326 128.728 80.7375 104.52 97.8129 85.7749C114.757 67.1747 137.903 55.3676 162.987 52.528L163.575 57.5693C139.742 60.2667 117.748 71.4877 101.646 89.1638C85.42 106.976 76.4835 129.98 76.4835 153.938C76.4835 167.035 79.0858 179.74 84.2199 191.697L79.4761 193.674V193.675Z" fill="#A4A4A4"/>
<path d="M89.5148 211.567C92.0722 211.567 94.1453 209.524 94.1453 207.004C94.1453 204.485 92.0722 202.442 89.5148 202.442C86.9575 202.442 84.8843 204.485 84.8843 207.004C84.8843 209.524 86.9575 211.567 89.5148 211.567Z" fill="url(#paint0_linear_7_690)"/>
<path d="M267.753 198.366C270.31 198.366 272.384 196.323 272.384 193.804C272.384 191.284 270.31 189.241 267.753 189.241C265.196 189.241 263.123 191.284 263.123 193.804C263.123 196.323 265.196 198.366 267.753 198.366Z" fill="url(#paint1_linear_7_690)"/>
<path d="M162.499 59.6103C165.057 59.6103 167.13 57.5677 167.13 55.0479C167.13 52.5281 165.057 50.4854 162.499 50.4854C159.942 50.4854 157.869 52.5281 157.869 55.0479C157.869 57.5677 159.942 59.6103 162.499 59.6103Z" fill="#A4A4A4"/>
</g>
<g opacity="0.15">
<path d="M164.368 236.89C151.316 235.262 138.676 230.557 127.816 223.282C116.597 215.768 107.308 205.502 100.954 193.596C94.2908 181.109 90.9829 167.099 91.3885 153.08C91.7819 139.492 95.6317 126.075 102.52 114.285L106.984 116.817C100.518 127.884 96.9053 140.474 96.5364 153.225C96.1553 166.374 99.2596 179.518 105.513 191.233C111.475 202.405 120.188 212.037 130.71 219.084C140.902 225.911 152.764 230.326 165.014 231.853L164.367 236.888L164.368 236.89Z" fill="url(#paint2_linear_7_690)"/>
<path d="M180.789 237.332L180.42 232.271C191.195 231.509 201.549 228.588 211.192 223.593C228.546 214.602 241.757 199.648 248.392 181.486C254.985 163.438 254.555 143.77 247.182 126.107L251.945 124.176C259.807 143.006 260.266 163.969 253.239 183.204C246.167 202.563 232.085 218.501 213.589 228.085C203.312 233.409 192.277 236.521 180.789 237.334V237.332Z" fill="url(#paint3_linear_7_690)"/>
<path d="M239.37 111.828C228.629 96.3074 212.483 85.2149 193.906 80.5912C175.186 75.9339 155.458 78.2488 138.353 87.1106C129.002 91.9561 120.895 98.4586 114.258 106.439L110.275 103.221C117.353 94.7131 125.994 87.7807 135.958 82.6185C154.189 73.1723 175.217 70.7059 195.168 75.6707C214.965 80.5973 232.176 92.4227 243.627 108.968L239.372 111.828H239.37Z" fill="url(#paint4_linear_7_690)"/>
<path d="M108.109 113.814C109.061 115.598 108.364 117.805 106.554 118.743C104.743 119.681 102.503 118.996 101.551 117.212C100.599 115.428 101.295 113.22 103.106 112.282C104.917 111.344 107.157 112.03 108.109 113.814Z" fill="url(#paint5_linear_7_690)"/>
<path d="M183.96 233.247C184.912 235.031 184.216 237.239 182.405 238.177C180.594 239.115 178.355 238.429 177.403 236.645C176.45 234.861 177.147 232.653 178.958 231.715C180.769 230.778 183.008 231.463 183.96 233.247Z" fill="url(#paint6_linear_7_690)"/>
<path d="M244.486 108.153C245.438 109.937 244.741 112.144 242.931 113.082C241.12 114.02 238.88 113.335 237.928 111.551C236.976 109.767 237.672 107.559 239.483 106.621C241.294 105.683 243.534 106.369 244.486 108.153Z" fill="url(#paint7_linear_7_690)"/>
</g>
</g>
<path d="M277.094 71.0226H67.8686C66.6022 71.0226 65.5756 72.0487 65.5756 73.3146V236.388C65.5756 237.654 66.6022 238.68 67.8686 238.68H277.094C278.36 238.68 279.387 237.654 279.387 236.388V73.3146C279.387 72.0487 278.36 71.0226 277.094 71.0226Z" fill="url(#paint8_linear_7_690)"/>
<path d="M272.313 88.5824H72.6477C71.3813 88.5824 70.3546 89.6085 70.3546 90.8744V232.349C70.3546 233.615 71.3813 234.641 72.6477 234.641H272.313C273.58 234.641 274.606 233.615 274.606 232.349V90.8744C274.606 89.6085 273.58 88.5824 272.313 88.5824Z" fill="white"/>
<path d="M70.3776 79.355C70.1036 82.1243 72.4135 84.4331 75.1841 84.1592C77.2353 83.9557 78.8931 82.2987 79.0967 80.2485C79.3707 77.4777 77.0608 75.1689 74.2902 75.4443C72.239 75.6478 70.5812 77.3048 70.3776 79.355Z" fill="#DB0008"/>
<path d="M81.9669 79.355C81.6929 82.1243 84.0028 84.4331 86.7734 84.1592C88.8246 83.9557 90.4824 82.2987 90.686 80.2485C90.96 77.4777 88.6501 75.1689 85.8779 75.4443C83.8267 75.6478 82.1689 77.3063 81.9654 79.355H81.9669Z" fill="#FFC700"/>
<path d="M93.5577 79.355C93.2837 82.1243 95.5936 84.4331 98.3642 84.1592C100.415 83.9557 102.073 82.2987 102.277 80.2485C102.551 77.4777 100.241 75.1689 97.4703 75.4443C95.4191 75.6478 93.7613 77.3048 93.5577 79.355Z" fill="#39CA4A"/>
<path d="M239.638 185.233H105.324V186.455H239.638V185.233Z" fill="#6B8095"/>
<path d="M139.354 225.439C136.55 225.439 134.236 224.635 132.543 223.051C128.341 219.117 127.483 210.456 130.549 202.906C135.174 191.513 149.07 182.668 164.074 174.983C161.048 172.065 157.446 168.283 154.614 164.597C154.567 164.731 154.518 164.862 154.467 164.992C152.517 170.151 149.702 174.149 146.742 175.956C144.567 177.286 140.276 178.583 135.994 172.356C134.921 170.795 133.914 169.285 132.976 167.876C130.602 164.313 127.353 159.441 126.312 159.441C126.306 159.441 126.3 159.441 126.296 159.441C125.873 159.706 124.904 161.805 125.565 175.366C125.594 175.948 125.169 176.446 124.618 176.476C124.071 176.501 123.595 176.057 123.566 175.474C122.87 161.208 123.765 158.13 125.659 157.439C127.915 156.618 130.295 160.182 134.612 166.658C135.546 168.06 136.547 169.562 137.614 171.114C140.213 174.894 142.872 175.88 145.741 174.126C148.967 172.156 151.697 167.212 153.169 162.624C151.002 159.495 149.592 156.565 149.809 154.449C149.938 153.196 150.596 152.243 151.709 151.695L151.821 151.647C153.65 151.016 155.115 151.634 155.836 153.34C156.744 155.489 156.294 158.981 155.384 162.208C158.239 166.104 162.345 170.538 165.997 174.007C170.176 171.905 182.508 166.033 184.442 165.098C180.496 161.158 177.54 157.036 176.284 152.968C174.823 148.243 175.665 143.942 178.785 140.185C186.896 130.414 202.185 135.319 206.924 139.56C209.837 142.168 211.129 144.893 210.76 147.656C209.919 153.976 200.361 159.61 187.997 165.694C191.049 168.455 194.721 171.241 198.945 173.981C208.411 180.124 219.588 185.285 227.418 187.131C227.957 187.258 228.297 187.824 228.177 188.394C228.058 188.964 227.522 189.324 226.983 189.195C216.568 186.74 197.789 177.52 186.051 166.645C183.884 167.697 171.546 173.572 167.635 175.526C168.555 176.359 169.426 177.107 170.214 177.742C175.503 182.01 179.161 186.149 174.309 197.142C167.63 212.271 153.328 222.779 143.261 224.985C141.874 225.289 140.567 225.439 139.353 225.439H139.354ZM165.686 176.507C150.738 184.105 136.835 192.785 132.389 203.736C129.694 210.377 130.344 218.164 133.871 221.466C136.313 223.755 140.106 223.515 142.857 222.912C152.581 220.781 166.328 210.224 172.498 196.245C177.057 185.92 173.325 182.907 169.003 179.419C168.204 178.773 167.045 177.765 165.688 176.504L165.686 176.507ZM191.709 136.566C187.965 136.566 183.574 137.62 180.291 141.576C177.634 144.776 176.946 148.286 178.188 152.307C179.33 156.002 182.134 160.035 186.367 164.158C198.247 158.343 208.059 152.777 208.781 147.357C209.051 145.332 208.02 143.309 205.632 141.172C203.659 139.406 199.131 137.311 194.293 136.727C193.486 136.629 192.615 136.568 191.707 136.568L191.709 136.566ZM152.503 153.635C152.063 153.868 151.851 154.181 151.801 154.674C151.672 155.933 152.49 157.823 153.881 160.012C154.428 157.543 154.518 155.399 154.011 154.198C153.812 153.728 153.531 153.298 152.503 153.633V153.635Z" fill="#6B8095"/>
<path d="M87.6855 115.83V102.519H90.4807C91.8201 102.519 92.8778 102.651 93.6554 102.915C94.4897 103.174 95.2444 103.615 95.924 104.234C97.2971 105.489 97.9859 107.134 97.9859 109.175C97.9859 111.216 97.2711 112.877 95.8383 114.141C95.1204 114.774 94.3657 115.214 93.5789 115.46C92.8426 115.708 91.7987 115.83 90.4485 115.83H87.6886H87.6855ZM89.6954 113.942H90.6016C91.5048 113.942 92.2548 113.847 92.8533 113.658C93.4519 113.457 93.9922 113.139 94.4744 112.701C95.4648 111.802 95.9577 110.624 95.9577 109.175C95.9577 107.726 95.4694 106.531 94.4912 105.622C93.6111 104.811 92.3145 104.407 90.6016 104.407H89.6954V113.942Z" fill="#6B8095"/>
<path d="M102.522 102.519H100.512V115.83H102.522V102.519Z" fill="#6B8095"/>
<path d="M112.569 108.898H118.072V109.337C118.072 110.337 117.955 111.222 117.719 111.991C117.489 112.704 117.102 113.371 116.554 113.991C115.322 115.385 113.745 116.078 111.836 116.078C109.927 116.078 108.377 115.405 107.049 114.06C105.721 112.709 105.056 111.089 105.056 109.198C105.056 107.307 105.732 105.628 107.083 104.283C108.435 102.932 110.079 102.258 112.017 102.258C113.058 102.258 114.03 102.47 114.933 102.896C115.795 103.321 116.644 104.011 117.477 104.964L116.046 106.335C114.953 104.882 113.623 104.153 112.052 104.153C110.644 104.153 109.462 104.638 108.507 105.61C107.552 106.565 107.076 107.759 107.076 109.196C107.076 110.633 107.607 111.9 108.671 112.86C109.666 113.751 110.743 114.196 111.905 114.196C112.894 114.196 113.782 113.863 114.57 113.196C115.358 112.522 115.798 111.719 115.89 110.781H112.569V108.893V108.898Z" fill="#6B8095"/>
<path d="M122.61 102.519H120.6V115.83H122.61V102.519Z" fill="#6B8095"/>
<path d="M129.484 104.406V115.83H127.474V104.406H124.411V102.519H132.536V104.406H129.484Z" fill="#6B8095"/>
<path d="M141.43 112.597H135.728L134.245 115.83H132.08L138.67 101.682L145.027 115.83H142.828L141.43 112.597ZM140.611 110.709L138.636 106.184L136.567 110.709H140.613H140.611Z" fill="#6B8095"/>
<path d="M148.701 102.519V113.941H152.617V115.83H146.691V102.519H148.701Z" fill="#6B8095"/>
<path d="M167.505 104.502L165.874 105.467C165.57 104.938 165.279 104.594 165.003 104.433C164.716 104.25 164.345 104.158 163.891 104.158C163.333 104.158 162.87 104.315 162.502 104.632C162.135 104.943 161.95 105.333 161.95 105.804C161.95 106.454 162.433 106.976 163.399 107.374L164.728 107.917C165.809 108.353 166.6 108.887 167.101 109.516C167.601 110.145 167.851 110.917 167.851 111.831C167.851 113.055 167.442 114.066 166.626 114.865C165.804 115.67 164.783 116.072 163.565 116.072C162.409 116.072 161.454 115.731 160.701 115.047C159.958 114.363 159.496 113.401 159.312 112.158L161.348 111.71C161.44 112.492 161.605 113.029 161.832 113.33C162.254 113.898 162.85 114.193 163.643 114.193C164.269 114.193 164.789 113.983 165.204 113.564C165.619 113.145 165.825 112.613 165.825 111.97C165.825 111.711 165.789 111.474 165.718 111.259C165.646 111.043 165.535 110.844 165.382 110.663C165.228 110.483 165.033 110.313 164.791 110.155C164.549 109.998 164.261 109.846 163.927 109.703L162.642 109.169C160.818 108.399 159.908 107.271 159.908 105.789C159.908 104.788 160.29 103.953 161.054 103.28C161.819 102.602 162.77 102.262 163.909 102.262C165.444 102.262 166.643 103.009 167.506 104.504L167.505 104.502Z" fill="#6B8095"/>
<path d="M172.282 102.519H170.272V115.83H172.282V102.519Z" fill="#6B8095"/>
<path d="M182.331 108.898H187.835V109.337C187.835 110.337 187.717 111.222 187.481 111.991C187.251 112.704 186.864 113.371 186.316 113.991C185.084 115.385 183.507 116.078 181.598 116.078C179.689 116.078 178.14 115.405 176.812 114.06C175.483 112.709 174.819 111.089 174.819 109.198C174.819 107.307 175.494 105.628 176.845 104.283C178.197 102.932 179.841 102.258 181.779 102.258C182.82 102.258 183.792 102.47 184.695 102.896C185.557 103.321 186.405 104.011 187.239 104.964L185.808 106.335C184.715 104.882 183.385 104.153 181.814 104.153C180.406 104.153 179.224 104.638 178.269 105.61C177.314 106.565 176.838 107.759 176.838 109.196C176.838 110.633 177.369 111.9 178.433 112.86C179.428 113.751 180.505 114.196 181.667 114.196C182.656 114.196 183.544 113.863 184.332 113.196C185.12 112.522 185.56 111.719 185.652 110.781H182.331V108.893V108.898Z" fill="#6B8095"/>
<path d="M190.362 115.83V101.613L200.073 111.77V102.519H202.083V116.64L192.37 106.509V115.83H190.362Z" fill="#6B8095"/>
<path d="M213.2 112.597H207.498L206.015 115.83H203.851L210.44 101.682L216.798 115.83H214.598L213.2 112.597ZM212.381 110.709L210.407 106.184L208.337 110.709H212.383H212.381Z" fill="#6B8095"/>
<path d="M221.395 104.406V115.83H219.385V104.406H216.323V102.519H224.448V104.406H221.395Z" fill="#6B8095"/>
<path d="M228.252 102.519V110.536C228.252 111.681 228.434 112.519 228.813 113.046C229.365 113.814 230.155 114.192 231.167 114.192C232.179 114.192 232.972 113.809 233.53 113.046C233.904 112.535 234.091 111.698 234.091 110.536V102.519H236.1V111.089C236.1 112.492 235.663 113.647 234.789 114.554C233.806 115.565 232.598 116.072 231.165 116.072C229.733 116.072 228.529 115.565 227.551 114.554C226.677 113.647 226.239 112.49 226.239 111.089V102.519H228.249H228.252Z" fill="#6B8095"/>
<path d="M243.803 110.157L247.925 115.83H245.467L241.663 110.382H241.3V115.83H239.29V102.519H241.645C243.404 102.519 244.676 102.85 245.458 103.511C246.32 104.247 246.751 105.218 246.751 106.425C246.751 107.368 246.48 108.179 245.94 108.856C245.4 109.534 244.686 109.969 243.802 110.158L243.803 110.157ZM241.302 108.632H241.94C243.843 108.632 244.795 107.905 244.795 106.45C244.795 105.088 243.869 104.407 242.018 104.407H241.302V108.632Z" fill="#6B8095"/>
<path d="M257.277 104.406H251.937V107.605H257.12V109.493H251.937V113.941H257.277V115.83H249.927V102.519H257.277V104.406Z" fill="#6B8095"/>
<path d="M228.167 188.851C227.926 189.229 227.49 189.382 227.195 189.194C226.899 189.006 226.853 188.548 227.093 188.17C227.334 187.792 227.77 187.639 228.066 187.827C228.361 188.016 228.407 188.473 228.167 188.851Z" fill="url(#paint9_linear_7_690)"/>
<path d="M226.947 188.077L228.315 188.944C228.935 188.285 229.563 187.596 230.196 186.867C232.001 184.789 233.562 182.754 234.908 180.834C235.086 180.581 235.056 180.262 234.851 180.131L232.177 178.435C231.972 178.305 231.67 178.413 231.516 178.681C230.343 180.71 229.157 182.985 228.035 185.496C227.64 186.378 227.282 187.237 226.945 188.077H226.947Z" fill="url(#paint10_linear_7_690)"/>
<path d="M230.575 187.22C232.468 185.236 234.4 183.123 236.35 180.878C241.3 175.18 245.531 169.605 249.127 164.392L240.422 158.868C237.212 164.327 233.942 170.511 230.867 177.397C229.655 180.112 228.554 182.751 227.556 185.303L230.575 187.218V187.22Z" fill="url(#paint11_linear_7_690)"/>
<path d="M315.952 50.0325C313.654 48.5744 311.18 48.348 310.429 49.5276L265.973 119.228L274.294 124.51L318.75 54.8092C319.501 53.6296 318.249 51.4906 315.952 50.0325Z" fill="url(#paint12_linear_7_690)"/>
<path d="M307.758 62.8799C304.724 60.9537 301.459 60.6553 299.418 63.8546L239.745 157.416C239.474 157.841 242.055 156.69 243.678 157.72L248.79 160.965C250.413 161.995 250.462 164.815 250.733 164.389L310.406 70.8283C312.446 67.6291 310.792 64.8047 307.758 62.8799Z" fill="url(#paint13_linear_7_690)"/>
<path d="M304.612 83.9603L291.786 75.8207L294.333 71.8289L307.159 79.9685L304.612 83.9603Z" fill="url(#paint14_linear_7_690)"/>
<path d="M302.775 82.7944L291.786 75.8207L291.471 76.3164L302.46 83.2886L302.775 82.7944Z" fill="url(#paint15_linear_7_690)"/>
<path d="M289.762 109.458L289.026 108.991C288.728 108.801 288.682 108.339 288.925 107.958L307.984 78.0744C308.228 77.6934 308.667 77.5389 308.965 77.7286L309.702 78.1952C310 78.385 310.046 78.847 309.803 79.228L290.743 109.112C290.5 109.493 290.061 109.647 289.762 109.458Z" fill="url(#paint16_linear_7_690)"/>
<path d="M270.888 133.569C271.113 133.101 271.026 132.584 270.68 132.363L260.375 125.824C260.029 125.605 259.522 125.745 259.192 126.147C250.783 136.389 243.339 149.05 238.761 159.203C238.553 159.665 238.644 160.165 238.983 160.378C240.036 161.043 241.085 161.719 242.133 162.393V162.396C242.272 162.484 243.211 163.08 243.514 163.272L243.518 163.266C245.064 164.238 247.021 165.473 248.372 166.335C248.711 166.551 249.199 166.418 249.531 166.033C256.81 157.595 265.152 145.505 270.888 133.567V133.569Z" fill="url(#paint17_linear_7_690)"/>
<defs>
<linearGradient id="paint0_linear_7_690" x1="89.5148" y1="25.7575" x2="89.5148" y2="283.645" gradientUnits="userSpaceOnUse">
<stop stop-color="#00BDFF"/>
<stop offset="1" stop-color="#0174E8"/>
</linearGradient>
<linearGradient id="paint1_linear_7_690" x1="267.753" y1="25.759" x2="267.753" y2="283.645" gradientUnits="userSpaceOnUse">
<stop stop-color="#00BDFF"/>
<stop offset="1" stop-color="#0174E8"/>
</linearGradient>
<linearGradient id="paint2_linear_7_690" x1="128.186" y1="25.7591" x2="128.186" y2="283.645" gradientUnits="userSpaceOnUse">
<stop stop-color="#00BDFF"/>
<stop offset="1" stop-color="#0174E8"/>
</linearGradient>
<linearGradient id="paint3_linear_7_690" x1="219.305" y1="25.7591" x2="219.305" y2="283.645" gradientUnits="userSpaceOnUse">
<stop stop-color="#00BDFF"/>
<stop offset="1" stop-color="#0174E8"/>
</linearGradient>
<linearGradient id="paint4_linear_7_690" x1="176.949" y1="25.7591" x2="176.949" y2="283.645" gradientUnits="userSpaceOnUse">
<stop stop-color="#00BDFF"/>
<stop offset="1" stop-color="#0174E8"/>
</linearGradient>
<linearGradient id="paint5_linear_7_690" x1="104.83" y1="25.7591" x2="104.83" y2="283.645" gradientUnits="userSpaceOnUse">
<stop stop-color="#00BDFF"/>
<stop offset="1" stop-color="#0174E8"/>
</linearGradient>
<linearGradient id="paint6_linear_7_690" x1="180.681" y1="25.7592" x2="180.681" y2="283.645" gradientUnits="userSpaceOnUse">
<stop stop-color="#00BDFF"/>
<stop offset="1" stop-color="#0174E8"/>
</linearGradient>
<linearGradient id="paint7_linear_7_690" x1="241.207" y1="25.7591" x2="241.207" y2="283.647" gradientUnits="userSpaceOnUse">
<stop stop-color="#00BDFF"/>
<stop offset="1" stop-color="#0174E8"/>
</linearGradient>
<linearGradient id="paint8_linear_7_690" x1="172.481" y1="51.4279" x2="172.481" y2="308.124" gradientUnits="userSpaceOnUse">
<stop stop-color="#00BDFF"/>
<stop offset="1" stop-color="#0174E8"/>
</linearGradient>
<linearGradient id="paint9_linear_7_690" x1="227.112" y1="189.367" x2="227.805" y2="188.277" gradientUnits="userSpaceOnUse">
<stop stop-color="#F0F2F8"/>
<stop offset="0.19" stop-color="#E8ECF3"/>
<stop offset="0.47" stop-color="#D4DCE8"/>
<stop offset="0.81" stop-color="#B3C2D5"/>
<stop offset="1" stop-color="#9EB1C9"/>
</linearGradient>
<linearGradient id="paint10_linear_7_690" x1="227.578" y1="188.655" x2="229.552" y2="185.549" gradientUnits="userSpaceOnUse">
<stop stop-color="#F0F2F8"/>
<stop offset="0.19" stop-color="#E8ECF3"/>
<stop offset="0.47" stop-color="#D4DCE8"/>
<stop offset="0.81" stop-color="#B3C2D5"/>
<stop offset="1" stop-color="#9EB1C9"/>
</linearGradient>
<linearGradient id="paint11_linear_7_690" x1="249.778" y1="153.94" x2="229.603" y2="185.108" gradientUnits="userSpaceOnUse">
<stop stop-color="#F0F2F8"/>
<stop offset="0.19" stop-color="#E8ECF3"/>
<stop offset="0.47" stop-color="#D4DCE8"/>
<stop offset="0.81" stop-color="#B3C2D5"/>
<stop offset="1" stop-color="#9EB1C9"/>
</linearGradient>
<linearGradient id="paint12_linear_7_690" x1="315.495" y1="50.7034" x2="306.268" y2="65.2166" gradientUnits="userSpaceOnUse">
<stop stop-color="#FFD03F"/>
<stop offset="0.2" stop-color="#FCC939"/>
<stop offset="0.46" stop-color="#F5B82A"/>
<stop offset="0.77" stop-color="#EA9C12"/>
<stop offset="0.9" stop-color="#E58E06"/>
<stop offset="1" stop-color="#DF8800"/>
</linearGradient>
<linearGradient id="paint13_linear_7_690" x1="308.548" y1="61.5621" x2="244.652" y2="162.063" gradientUnits="userSpaceOnUse">
<stop stop-color="#FFD03F"/>
<stop offset="0.2" stop-color="#FCC939"/>
<stop offset="0.46" stop-color="#F5B82A"/>
<stop offset="0.77" stop-color="#EA9C12"/>
<stop offset="0.9" stop-color="#E58E06"/>
<stop offset="1" stop-color="#DF8800"/>
</linearGradient>
<linearGradient id="paint14_linear_7_690" x1="301.177" y1="76.4685" x2="297.903" y2="81.6183" gradientUnits="userSpaceOnUse">
<stop stop-color="#F0F2F8"/>
<stop offset="0.19" stop-color="#E8ECF3"/>
<stop offset="0.47" stop-color="#D4DCE8"/>
<stop offset="0.81" stop-color="#B3C2D5"/>
<stop offset="1" stop-color="#9EB1C9"/>
</linearGradient>
<linearGradient id="paint15_linear_7_690" x1="297.358" y1="79.2192" x2="296.858" y2="80.0057" gradientUnits="userSpaceOnUse">
<stop stop-color="#F0F2F8"/>
<stop offset="0.19" stop-color="#E8ECF3"/>
<stop offset="0.47" stop-color="#D4DCE8"/>
<stop offset="0.81" stop-color="#B3C2D5"/>
<stop offset="1" stop-color="#9EB1C9"/>
</linearGradient>
<linearGradient id="paint16_linear_7_690" x1="308.275" y1="79.6263" x2="282.704" y2="119.846" gradientUnits="userSpaceOnUse">
<stop stop-color="#F0F2F8"/>
<stop offset="0.19" stop-color="#E8ECF3"/>
<stop offset="0.47" stop-color="#D4DCE8"/>
<stop offset="0.81" stop-color="#B3C2D5"/>
<stop offset="1" stop-color="#9EB1C9"/>
</linearGradient>
<linearGradient id="paint17_linear_7_690" x1="268.569" y1="124.173" x2="244.049" y2="163.007" gradientUnits="userSpaceOnUse">
<stop stop-color="#FFD03F"/>
<stop offset="0.2" stop-color="#FCC939"/>
<stop offset="0.46" stop-color="#F5B82A"/>
<stop offset="0.77" stop-color="#EA9C12"/>
<stop offset="0.9" stop-color="#E58E06"/>
<stop offset="1" stop-color="#DF8800"/>
</linearGradient>
</defs>
</svg>
