<svg width="281" height="65" viewBox="0 0 281 65" fill="none" xmlns="http://www.w3.org/2000/svg">
<path d="M45.4883 31.2642C44.7326 30.5087 43.8156 30.1312 42.7359 30.1312H41.4416V22.3602C41.4416 17.3958 39.6613 13.1332 36.0997 9.57171C32.5383 6.01007 28.2761 4.22925 23.311 4.22925C18.346 4.22925 14.083 6.01007 10.5219 9.57157C6.96027 13.1332 5.18002 17.3957 5.18002 22.3602V30.1312H3.88512C2.80625 30.1312 1.88869 30.5087 1.13316 31.2642C0.377625 32.0192 0 32.9367 0 34.0166V57.3279C0 58.4067 0.377767 59.3246 1.13316 60.0803C1.88869 60.8351 2.80625 61.213 3.88512 61.213H42.7369C43.8166 61.213 44.7335 60.8355 45.4893 60.0803C46.2441 59.3246 46.6224 58.4067 46.6224 57.3279V34.0162C46.623 32.9372 46.2441 32.0197 45.4883 31.2642ZM33.6715 30.1312H12.9505V22.3602C12.9505 19.5004 13.9625 17.0585 15.986 15.0352C18.0098 13.0117 20.4513 12.0002 23.3114 12.0002C26.1718 12.0002 28.6128 13.0116 30.6367 15.0352C32.6596 17.0583 33.6715 19.5004 33.6715 22.3602V30.1312Z" fill="#F44336"/>
<path d="M59.1249 43.9542L64.0097 37.0297C66.5862 39.6063 70.5584 41.7534 75.4432 41.7534C78.6102 41.7534 80.5426 40.4115 80.5426 38.6938C80.5426 36.654 78.2344 35.8488 74.4233 35.0436C68.5187 33.8627 60.2522 32.3597 60.2522 23.8785C60.2522 17.8666 65.3516 12.6598 74.5306 12.6598C80.2742 12.6598 85.2663 14.3775 89.0775 17.6518L84.0317 24.2543C81.0257 21.7851 77.1072 20.5505 73.9402 20.5505C70.8805 20.5505 69.6996 21.7851 69.6996 23.3417C69.6996 25.2205 71.9004 25.8646 75.8726 26.6161C81.7772 27.8507 89.9363 29.5684 89.9363 37.6739C89.9363 44.8668 84.6222 49.6441 75.0137 49.6441C67.7672 49.6441 62.7214 47.3896 59.1249 43.9542ZM98.173 19.799C95.5428 19.799 93.4493 17.7055 93.4493 15.0753C93.4493 12.445 95.5428 10.3516 98.173 10.3516C100.803 10.3516 102.897 12.445 102.897 15.0753C102.897 17.7055 100.803 19.799 98.173 19.799ZM102.306 49H94.0398V23.0734H102.306V49ZM107.6 55.6561L111.197 49.7515C113.183 51.8986 116.081 52.7575 119.087 52.7575C121.825 52.7575 125.69 51.6302 125.69 46.7992V44.8131C123.543 47.336 120.966 48.5706 118.014 48.5706C111.68 48.5706 106.58 44.2226 106.58 35.4731C106.58 26.9382 111.519 22.4292 118.014 22.4292C120.913 22.4292 123.596 23.5565 125.69 26.133V23.0734H133.903V46.6918C133.903 57.2665 125.529 59.521 119.087 59.521C114.632 59.521 110.928 58.3937 107.6 55.6561ZM125.69 38.9621V32.0376C124.67 30.642 122.469 29.7295 120.751 29.7295C117.477 29.7295 115.062 31.7156 115.062 35.4731C115.062 39.2842 117.477 41.2703 120.751 41.2703C122.469 41.2703 124.67 40.3578 125.69 38.9621ZM165.779 49H157.513V34.0237C157.513 30.8567 155.849 29.7295 153.272 29.7295C150.803 29.7295 149.193 31.0714 148.226 32.2524V49H139.96V23.0734H148.226V26.2404C149.783 24.4153 152.843 22.4292 157.191 22.4292C163.095 22.4292 165.779 25.8646 165.779 30.642V49Z" fill="white"/>
<path d="M194.056 49H172.96V13.1965H177.415V45.0278H194.056V49ZM210.335 49.6441C202.444 49.6441 197.506 43.5248 197.506 36.0098C197.506 28.4949 202.444 22.4292 210.335 22.4292C218.226 22.4292 223.164 28.4949 223.164 36.0098C223.164 43.5248 218.226 49.6441 210.335 49.6441ZM210.335 46.0477C215.864 46.0477 218.924 41.324 218.924 36.0098C218.924 30.7494 215.864 26.0257 210.335 26.0257C204.806 26.0257 201.693 30.7494 201.693 36.0098C201.693 41.324 204.806 46.0477 210.335 46.0477ZM228.224 36.0098C228.224 28.3338 233.431 22.4292 241.161 22.4292C245.885 22.4292 248.676 24.3616 250.662 26.9382L247.978 29.4074C246.26 27.0456 244.059 26.0257 241.376 26.0257C235.847 26.0257 232.411 30.2663 232.411 36.0098C232.411 41.7534 235.847 46.0477 241.376 46.0477C244.059 46.0477 246.26 44.9741 247.978 42.666L250.662 45.1352C248.676 47.7117 245.885 49.6441 241.161 49.6441C233.431 49.6441 228.224 43.7395 228.224 36.0098ZM279.118 49H273.965L264.625 37.3518L260.33 41.5924V49H256.304V13.1965H260.33V36.8687L273.965 23.0734H279.064L267.577 34.8289L279.118 49Z" fill="#F44336"/>
</svg>
